<?xml version="1.0" encoding="utf-8"?>
<svg id="master-artboard" viewBox="0 0 1000 1000" version="1.1" xmlns="http://www.w3.org/2000/svg" x="0px" y="0px" style="enable-background:new 0 0 1400 980;" width="1000px" height="1000px"><rect id="ee-background" x="0" y="0" width="1000" height="1000" style="fill: white; fill-opacity: 0; pointer-events: none;"/>


<rect id="rect-2" x="0" y="0" width="2000" height="2000" style="fill: rgb(231, 163, 255); fill-opacity: 0; pointer-events: none;" transform="matrix(0.4899999499320984, 0, 0, 0.4899999499320984, -0.680419921875, 2.5080566406250284)"/><g transform="matrix(0.4899999499320984, 0, 0, 0.4899999499320984, 118.574462890625, -18.53688621520996)"><g transform="matrix(1.0000005960464478, -0.0040198806673288345, 0.0040198806673288345, 1.0000005960464478, -93.20005798339844, -41.07613754272464)"><path class="st3" d="M535.6,1744.2c-38.5,9.9-71.6,45.8-110.7,38.4c-25-4.7-43.6-27.1-51.3-51.3c-7.7-24.2,137-97.7,137-97.7&#10;&#9;&#9;&#9;&#9;s-144.3-35.5-136.6-155c19.9-310.7,40.9-510.3,51.1-824.9c2.6-81.2,54.8-66.8,79.5-99.8c0,0-47.3-13.5-98.1-57.3&#10;&#9;&#9;&#9;&#9;c-25.9-22.3-41.3-57.2-43.5-91.4c-0.3-5.3,0-10.7,0.9-16.1c-29.2,4.5-50,38.6-48,69.4c2.2,34.2,19.4,67.1,43.5,91.4&#10;&#9;&#9;&#9;&#9;c17.5,17.5,16.3,63.4,15.1,88.1c-17.7,357-35.5,714-53.2,1070.9c-1.3,25.4-2.4,51.4,5.3,75.6c7.7,24.2,26.3,46.6,51.3,51.3&#10;&#9;&#9;&#9;&#9;c39,7.4,72.2-28.5,110.7-38.4c35.7-9.2,78.7,3.4,106.9-20.3c12-10.1,18.3-24.9,20-40.6C590.5,1742.3,561.2,1737.7,535.6,1744.2z" style="fill: rgb(201, 196, 177);" transform="matrix(0.9999999999999999, 0, 0, 0.9999999999999999, 0, -1.1368683772161603e-13)"/><path class="st2" d="M 359.4 550.1 C 335.2 525.9 318.09999999999997 492.90000000000003 315.9 458.70000000000005 C 313.7 424.50000000000006 339.5 386.40000000000003 373.59999999999997 388.90000000000003 C 406.59999999999997 391.40000000000003 431.79999999999995 428.90000000000003 464.4 423.8 C 484.4 420.7 497.9 402.7 512.1 388.40000000000003 C 526.3000000000001 374.00000000000006 544.3403686523437 413.66789550781255 561.7403686523438 424.0678955078125 C 574.0403686523438 431.4678955078125 582.1 395.3 583.7 409.6 C 589.4000000000001 461.1 578 512.9 567.9000000000001 563.7 C 516.3000000000001 823.5 497.2000000000001 1089.8000000000002 511.1000000000001 1354.3000000000002 C 516.0000000000001 1447.7000000000003 526.0000000000001 1544.1000000000001 572.4000000000001 1625.3000000000002 C 586.3000000000001 1649.7000000000003 603.5000000000001 1672.6000000000001 611.7 1699.4 C 619.9 1726.2 616.9000000000001 1759.1000000000001 595.4000000000001 1777.1000000000001 C 567.2 1800.8000000000002 524.2 1788.2 488.5000000000001 1797.4 C 450.0000000000001 1807.3000000000002 416.9000000000001 1843.2 377.8000000000001 1835.8000000000002 C 352.8000000000001 1831.1000000000001 334.2000000000001 1808.7000000000003 326.5000000000001 1784.5000000000002 C 318.8000000000001 1760.3000000000002 320.0000000000001 1734.3000000000002 321.2000000000001 1708.9000000000003 C 338.9000000000001 1351.9000000000003 356.7000000000001 994.9000000000003 374.4000000000001 638.0000000000002 C 375.7 613.4 376.9 567.6 359.4 550.1 Z" style="fill: rgb(233, 227, 208);" transform="matrix(0.9999999999999999, 0, 0, 0.9999999999999999, 0, -1.1368683772161603e-13)"/><path d="M 551.2618408203125 398.1058654785156 L 547.395751953125 401.9410095214844" style="fill: rgb(233, 227, 208); fill-opacity: 1; stroke: rgb(0, 0, 0); stroke-opacity: 1; stroke-width: 0; paint-order: fill;"/></g><g transform="matrix(0.043348316103219986, -0.9990709424018859, 0.9990709424018859, 0.043348316103219986, -432.3403015136719, 1209.4050292968748)"><path class="st2" d="M672,896.9c-17.6-28.8-35.5-58.6-40.7-91.9c-5.2-33.3,5.5-71.5,34.3-89.1c25.7-15.6,58.2-11.5,88.1-14.6&#10;&#9;&#9;&#9;&#9;c28.4-3,56.1-13.1,79.8-29.1c13-8.8,26-19.8,41.7-20.4c21.2-0.8,38.6,18.8,43.4,39.5c4.8,20.6,0.5,42.2-2.7,63.1&#10;&#9;&#9;&#9;&#9;c-35,231.1,80.9,461,70.2,694.5c-3,66.6-16.2,135.2,4.3,198.6c4.2,13.2,9.9,26,11.6,39.8c5,42.1-30.5,80.4-70.8,93.3&#10;&#9;&#9;&#9;&#9;s-84,6.4-125.8-0.7c-28.4-4.8-57.8-10.3-81.4-26.8c-23.6-16.5-39.9-47.2-30.7-74.5c8.8-26,36.1-40,56.2-58.7&#10;&#9;&#9;&#9;&#9;c47.2-43.9,54.9-114.7,58.3-179c5.1-97.2,7-195.4-11.3-291C778,1054.3,737.9,960.7,669,892L672,896.9z" style="fill: rgb(233, 227, 208);" transform="matrix(0.9999999999999999, 0, 0, 0.9999999999999999, 0, -2.842170943040401e-14)"/><g transform="matrix(0.9999999999999999, 0, 0, 0.9999999999999999, 0, -5.684341886080802e-14)">
					
				<path class="st3" d="M883.2,1756.6c-28.4-4.8-57.8-10.3-81.4-26.8c-23.6-16.5-39.9-47.2-30.7-74.5c0.8-2.4,2.1-5,3.6-7.5&#10;&#9;&#9;&#9;&#9;&#9;&#9;c14.7-24.5,44.8-35.2,72.1-26.8l60.9,18.8l0,0c-40.2-31.8-56.5-85-41.4-134c9.4-30.4,17.8-63.6,19.1-88.2&#10;&#9;&#9;&#9;&#9;&#9;&#9;c5.1-97.2,7-195.4-11.3-291c-11.5-59.7-13.3-96.8-29.8-133c-25.5-55.6-24.6-119.8,4-173.8c4.2-7.9,6.9-12.8,7.1-12.4l-50,24.4&#10;&#9;&#9;&#9;&#9;&#9;&#9;c-39.6,19.4-87.5-3.7-95.9-47c-0.2-1-0.4-2-0.5-3c-4.4-27.9,2.5-59.2,21.7-78.9c-23,0.9-46,1.5-65.3,13.2&#10;&#9;&#9;&#9;&#9;&#9;&#9;c-28.8,17.5-39.5,55.7-34.3,89.1c4.9,31.5,21.2,59.8,37.8,87.1c68.9,68.7,108.9,162.2,127.3,257.8&#10;&#9;&#9;&#9;&#9;&#9;&#9;c18.4,95.6,16.5,193.8,11.3,291c-3.4,64.3-11.2,135.1-58.3,179c-20.1,18.7-47.4,32.7-56.2,58.7c-9.2,27.3,7,58,30.7,74.5&#10;&#9;&#9;&#9;&#9;&#9;&#9;c23.6,16.5,53,22,81.4,26.8c41.8,7.1,85.4,13.6,125.8,0.7c11.1-3.6,21.9-9.1,31.6-16.1C936.3,1765.2,909.4,1761,883.2,1756.6z" style="fill: rgb(201, 196, 177);"/></g></g><g transform="matrix(0.9999999999999999, 0, 0, 0.9999999999999999, 0, -5.684341886080802e-14)">
					<path class="st3" d="M672,896.9c-1-1.6-2-3.2-3-4.9c0,0-0.1-0.1-0.1-0.1L672,896.9z" style="fill: rgb(201, 196, 177);"/>
				</g><g transform="matrix(-0.04512300342321396, -0.998985469341278, 0.998985469341278, -0.04512300342321396, -527.0103149414062, 3565.6037597656245)"><path class="st3" d="M2516.3,1697.4c-31.7,0-66.9-7.4-85.3-33.2c-26-36.5-5.3-86.3,12.6-127.3c43.2-98.6,71.4-212.9,75.1-320.5h0&#10;&#9;&#9;&#9;&#9;c-30.6,12.4-62.4-15.2-54.3-47.2c1.4-5.6,3.4-11.2,5.9-16.4c12.7-26.9,66.1-69.8,54-97c-11.1-25-42.8-36.9-51.1-63&#10;&#9;&#9;&#9;&#9;c-3.8-12-1.2-24.3,5.3-34.8c-6.8-1.3-13.8-1.8-20.9-1.2c-30.2,2.8-58.3,33.5-49.1,62.4c8.3,26,40,38,51.1,63&#10;&#9;&#9;&#9;&#9;c12,27.2-4.4,57.6-17,84.6c-12.7,26.9-19.7,64.1,3.9,82.2l3.6,1.4c-3.7,107.6-27.9,214.4-71.1,313c-18,41-38.6,90.9-12.6,127.3&#10;&#9;&#9;&#9;&#9;c18.4,25.8,53.5,33.1,85.2,33.2c31.7,0,64.3-5,94.6,4.3c21,6.4,49.8,16.6,60.1-2.7c4-7.5,2.6-16.5,0.3-24.9&#10;&#9;&#9;&#9;&#9;C2577.5,1692.9,2546.6,1697.4,2516.3,1697.4z" style="fill: rgb(201, 196, 177);" transform="matrix(0.9999999999999999, 0, 0, 0.9999999999999999, 0, -2.842170943040401e-14)"/><path class="st2" d="M2446.5,1249c-23.6-18.1-16.6-55.3-3.9-82.2c12.7-26.9,29.1-57.4,17.1-84.6c-11.1-25-42.8-36.9-51.1-63&#10;&#9;&#9;&#9;&#9;c-9.2-28.9,18.8-59.6,49.1-62.4c30.2-2.8,58.9,14.6,80.6,35.8c13.2,12.9,25,27.7,31.7,44.9c12.9,33.1,5.7,70.1-0.1,105.1&#10;&#9;&#9;&#9;&#9;c-30.6,183.7-18.5,374.3,35.3,552.6c3,9.9,6,20.9,1.1,30c-10.3,19.4-39.1,9.1-60.1,2.7c-30.3-9.3-62.9-4.2-94.6-4.3&#10;&#9;&#9;&#9;&#9;c-31.7,0-66.9-7.4-85.3-33.2c-26-36.5-5.3-86.3,12.6-127.3c43.2-98.6,67.4-205.4,71.1-313" style="fill: rgb(233, 227, 208);" transform="matrix(0.9999999999999999, 0, 0, 0.9999999999999999, 0, -2.842170943040401e-14)"/></g></g><path d="M 0 0 H 2000 V 2000 H 0 V 0 Z" id="rect-1" style="fill: white; fill-opacity: 0; pointer-events: none;" transform="matrix(0.4899999499320984, 0, 0, 0.4899999499320984, -0.6804046630859375, 2.5080865478503256)"/><path class="st2" d="M672,896.9c-17.6-28.8-35.5-58.6-40.7-91.9c-5.2-33.3,5.5-71.5,34.3-89.1c25.7-15.6,58.2-11.5,88.1-14.6&#10;&#9;&#9;&#9;&#9;c28.4-3,56.1-13.1,79.8-29.1c13-8.8,26-19.8,41.7-20.4c21.2-0.8,38.6,18.8,43.4,39.5c4.8,20.6,0.5,42.2-2.7,63.1&#10;&#9;&#9;&#9;&#9;c-35,231.1,80.9,461,70.2,694.5c-3,66.6-16.2,135.2,4.3,198.6c4.2,13.2,9.9,26,11.6,39.8c5,42.1-30.5,80.4-70.8,93.3&#10;&#9;&#9;&#9;&#9;s-84,6.4-125.8-0.7c-28.4-4.8-57.8-10.3-81.4-26.8c-23.6-16.5-39.9-47.2-30.7-74.5c8.8-26,36.1-40,56.2-58.7&#10;&#9;&#9;&#9;&#9;c47.2-43.9,54.9-114.7,58.3-179c5.1-97.2,7-195.4-11.3-291C778,1054.3,737.9,960.7,669,892L672,896.9z" style="fill: rgb(233, 233, 233);" transform="matrix(0.021240675821900368, -0.4895446300506592, 0.4895446300506592, 0.021240675821900368, -93.27225494384766, 574.071533203125)"/><g transform="matrix(0.021240675821900368, -0.4895446300506592, 0.4895446300506592, 0.021240675821900368, -93.27225494384766, 574.071533203125)">
					<path class="st3" d="M883.2,1756.6c-28.4-4.8-57.8-10.3-81.4-26.8c-23.6-16.5-39.9-47.2-30.7-74.5c0.8-2.4,2.1-5,3.6-7.5&#10;&#9;&#9;&#9;&#9;&#9;&#9;c14.7-24.5,44.8-35.2,72.1-26.8l60.9,18.8l0,0c-40.2-31.8-56.5-85-41.4-134c9.4-30.4,17.8-63.6,19.1-88.2&#10;&#9;&#9;&#9;&#9;&#9;&#9;c5.1-97.2,7-195.4-11.3-291c-11.5-59.7-13.3-96.8-29.8-133c-25.5-55.6-24.6-119.8,4-173.8c4.2-7.9,6.9-12.8,7.1-12.4l-50,24.4&#10;&#9;&#9;&#9;&#9;&#9;&#9;c-39.6,19.4-87.5-3.7-95.9-47c-0.2-1-0.4-2-0.5-3c-4.4-27.9,2.5-59.2,21.7-78.9c-23,0.9-46,1.5-65.3,13.2&#10;&#9;&#9;&#9;&#9;&#9;&#9;c-28.8,17.5-39.5,55.7-34.3,89.1c4.9,31.5,21.2,59.8,37.8,87.1c68.9,68.7,108.9,162.2,127.3,257.8&#10;&#9;&#9;&#9;&#9;&#9;&#9;c18.4,95.6,16.5,193.8,11.3,291c-3.4,64.3-11.2,135.1-58.3,179c-20.1,18.7-47.4,32.7-56.2,58.7c-9.2,27.3,7,58,30.7,74.5&#10;&#9;&#9;&#9;&#9;&#9;&#9;c23.6,16.5,53,22,81.4,26.8c41.8,7.1,85.4,13.6,125.8,0.7c11.1-3.6,21.9-9.1,31.6-16.1C936.3,1765.2,909.4,1761,883.2,1756.6z" style="fill: rgb(201, 201, 201);"/>
				</g><g transform="matrix(0.4899999499320984, 0, 0, 0.4899999499320984, 118.574462890625, -18.536853790283203)">
					<path class="st3" d="M672,896.9c-1-1.6-2-3.2-3-4.9c0,0-0.1-0.1-0.1-0.1L672,896.9z" style="fill: rgb(201, 196, 177);"/>
				</g><path class="st2" d="M2446.5,1249c-23.6-18.1-16.6-55.3-3.9-82.2c12.7-26.9,29.1-57.4,17.1-84.6c-11.1-25-42.8-36.9-51.1-63&#10;&#9;&#9;&#9;&#9;c-9.2-28.9,18.8-59.6,49.1-62.4c30.2-2.8,58.9,14.6,80.6,35.8c13.2,12.9,25,27.7,31.7,44.9c12.9,33.1,5.7,70.1-0.1,105.1&#10;&#9;&#9;&#9;&#9;c-30.6,183.7-18.5,374.3,35.3,552.6c3,9.9,6,20.9,1.1,30c-10.3,19.4-39.1,9.1-60.1,2.7c-30.3-9.3-62.9-4.2-94.6-4.3&#10;&#9;&#9;&#9;&#9;c-31.7,0-66.9-7.4-85.3-33.2c-26-36.5-5.3-86.3,12.6-127.3c43.2-98.6,67.4-205.4,71.1-313" style="fill: rgb(233, 233, 233);" transform="matrix(-0.02211027592420578, -0.48950281739234924, 0.48950281739234924, -0.02211027592420578, -139.66056060791016, 1728.6087646484375)"/><path class="st3" d="M2516.3,1697.4c-31.7,0-66.9-7.4-85.3-33.2c-26-36.5-5.3-86.3,12.6-127.3c43.2-98.6,71.4-212.9,75.1-320.5h0&#10;&#9;&#9;&#9;&#9;c-30.6,12.4-62.4-15.2-54.3-47.2c1.4-5.6,3.4-11.2,5.9-16.4c12.7-26.9,66.1-69.8,54-97c-11.1-25-42.8-36.9-51.1-63&#10;&#9;&#9;&#9;&#9;c-3.8-12-1.2-24.3,5.3-34.8c-6.8-1.3-13.8-1.8-20.9-1.2c-30.2,2.8-58.3,33.5-49.1,62.4c8.3,26,40,38,51.1,63&#10;&#9;&#9;&#9;&#9;c12,27.2-4.4,57.6-17,84.6c-12.7,26.9-19.7,64.1,3.9,82.2l3.6,1.4c-3.7,107.6-27.9,214.4-71.1,313c-18,41-38.6,90.9-12.6,127.3&#10;&#9;&#9;&#9;&#9;c18.4,25.8,53.5,33.1,85.2,33.2c31.7,0,64.3-5,94.6,4.3c21,6.4,49.8,16.6,60.1-2.7c4-7.5,2.6-16.5,0.3-24.9&#10;&#9;&#9;&#9;&#9;C2577.5,1692.9,2546.6,1697.4,2516.3,1697.4z" style="fill: rgb(201, 201, 201);" transform="matrix(-0.02211027592420578, -0.48950281739234924, 0.48950281739234924, -0.02211027592420578, -139.66056060791016, 1728.6087646484375)"/><path class="st2" d="M 359.4 550.1 C 335.2 525.9 318.09999999999997 492.90000000000003 315.9 458.70000000000005 C 313.7 424.50000000000006 339.5 386.40000000000003 373.59999999999997 388.90000000000003 C 406.59999999999997 391.40000000000003 431.79999999999995 428.90000000000003 464.4 423.8 C 484.4 420.7 497.8381103515625 418.1024658203125 512.0381103515625 403.80246582031253 C 526.2381103515626 389.40246582031256 539.6045288085937 394.39543457031255 557.0045288085938 404.7954345703125 C 569.3045288085938 412.1954345703125 582.1 395.3 583.7 409.6 C 589.4000000000001 461.1 578 512.9 567.9000000000001 563.7 C 516.3000000000001 823.5 497.2000000000001 1089.8000000000002 511.1000000000001 1354.3000000000002 C 516.0000000000001 1447.7000000000003 526.0000000000001 1544.1000000000001 572.4000000000001 1625.3000000000002 C 586.3000000000001 1649.7000000000003 603.5000000000001 1672.6000000000001 611.7 1699.4 C 619.9 1726.2 616.9000000000001 1759.1000000000001 595.4000000000001 1777.1000000000001 C 567.2 1800.8000000000002 524.2 1788.2 488.5000000000001 1797.4 C 450.0000000000001 1807.3000000000002 416.9000000000001 1843.2 377.8000000000001 1835.8000000000002 C 352.8000000000001 1831.1000000000001 334.2000000000001 1808.7000000000003 326.5000000000001 1784.5000000000002 C 318.8000000000001 1760.3000000000002 320.0000000000001 1734.3000000000002 321.2000000000001 1708.9000000000003 C 338.9000000000001 1351.9000000000003 356.7000000000001 994.9000000000003 374.4000000000001 638.0000000000002 C 375.7 613.4 376.9 567.6 359.4 550.1 Z" style="fill: rgb(233, 233, 233);" transform="matrix(0.49000024795532227, -0.001969741191715002, 0.001969741191715002, 0.49000024795532227, 72.90643310546875, -38.664161682128906)"/><path class="st3" d="M535.6,1744.2c-38.5,9.9-71.6,45.8-110.7,38.4c-25-4.7-43.6-27.1-51.3-51.3c-7.7-24.2,137-97.7,137-97.7&#10;&#9;&#9;&#9;&#9;s-144.3-35.5-136.6-155c19.9-310.7,40.9-510.3,51.1-824.9c2.6-81.2,54.8-66.8,79.5-99.8c0,0-47.3-13.5-98.1-57.3&#10;&#9;&#9;&#9;&#9;c-25.9-22.3-41.3-57.2-43.5-91.4c-0.3-5.3,0-10.7,0.9-16.1c-29.2,4.5-50,38.6-48,69.4c2.2,34.2,19.4,67.1,43.5,91.4&#10;&#9;&#9;&#9;&#9;c17.5,17.5,16.3,63.4,15.1,88.1c-17.7,357-35.5,714-53.2,1070.9c-1.3,25.4-2.4,51.4,5.3,75.6c7.7,24.2,26.3,46.6,51.3,51.3&#10;&#9;&#9;&#9;&#9;c39,7.4,72.2-28.5,110.7-38.4c35.7-9.2,78.7,3.4,106.9-20.3c12-10.1,18.3-24.9,20-40.6C590.5,1742.3,561.2,1737.7,535.6,1744.2z" style="fill: rgb(201, 201, 201);" transform="matrix(0.49000024795532227, -0.001969741191715002, 0.001969741191715002, 0.49000024795532227, 72.90643310546875, -38.664161682128906)"/></svg>